# xmcd
#
# Track frame offsets:
#	150
#	14997
#	33402
#	51492
#	67620
#	83067
#	98110
#	123467
#	143817
#	157975
#	176222
#	190960
#
# Disc length: 2820 seconds
#
# Revision: 1
# Processed by: cddbd v1.5.1PL0 Copyright (c) Steve Scherf et al.
# Submitted via: CDex 1.50Beta5
#
DISCID=a40b020c
DTITLE=はっぴいえんど - はっぴいえんどベスト
DYEAR=1900
DGENRE=Folk
TTITLE0=12月の雨の日
TTITLE1=風をあつめて
TTITLE2=花いちもんめ
TTITLE3=抱きしめたい
TTITLE4=はいからはくち
TTITLE5=夏なんです
TTITLE6=かくれんぼ
TTITLE7=春よこい
TTITLE8=氷雨月のスケッチ
TTITLE9=明日あたりはきっと春
TTITLE10=さよなら通り3番地
TTITLE11=さよならアメリカさよならニッポン
EXTD=
EXTT0=
EXTT1=
EXTT2=
EXTT3=
EXTT4=
EXTT5=
EXTT6=
EXTT7=
EXTT8=
EXTT9=
EXTT10=
EXTT11=
PLAYORDER=
